<svg xmlns="http://www.w3.org/2000/svg" width="1024" height="1024">
  <g stroke="#64341b" stroke-width="7.8">
    <path fill="#fff" d="M498 170c-129-8-250 17-350 106-49 45-88 60-97 127 34 344 155 544 457 544 301 0 422-200 456-544-9-67-47-82-97-127a510 510 0 00-369-106"/>
    <path fill="none" d="M401 870s85 42 194 0"/>
  </g>
  <g transform="translate(-60 139)">
    <path fill="#64341b" stroke="#95f" stroke-opacity=".5" stroke-width="11.1" d="M838 670c159-241 2-328 2-328l-275 22-270-22s-162 87 0 328a430 430 0 01270-153s182 21 273 153"/>
    <path fill-rule="evenodd" stroke="#a38e84" stroke-linecap="round" stroke-opacity=".6" stroke-width=".8" d="M325 536c-47 0-84-32-84-72 0-39 37-71 84-71 76 4 92 66 85 111-3 13-54 31-85 32z"/>
    <ellipse cx="301.2" cy="442.1" fill="#fff" fill-rule="evenodd" stroke="#000" stroke-linecap="round" stroke-opacity=".6" stroke-width="3" rx="11.2" ry="19.9"/>
    <path fill-rule="evenodd" stroke="#a38e84" stroke-linecap="round" stroke-opacity=".6" stroke-width=".8" d="M791 536c47 0 85-32 85-72 0-39-38-71-85-71-76 4-92 66-84 111 2 13 54 31 84 32z"/>
    <ellipse cx="-768.3" cy="440.1" fill="#fff" fill-rule="evenodd" stroke="#000" stroke-linecap="round" stroke-opacity=".6" stroke-width="3" rx="11.2" ry="19.9" transform="scale(-1 1)"/>
    <path fill="#e58e8e" fill-rule="evenodd" stroke="#64341b" stroke-linecap="round" stroke-width="7.8" d="M616 653c-16 2-26 29-58 29-33 0-43-25-59-29s26-30 59-30c32 0 80 26 58 30z"/>
    <path fill="none" stroke="#64341b" stroke-width="7.8" d="M558 691v63"/>
  </g>
  <path fill="#64341b" stroke="#64341b" stroke-width="7.345035" d="M885 277a697 697 0 00-367-107h-1 0c-130-8-251 18-352 106v1h0c-24 22-45 29-63 47-17 18-40 16-44 50l-4 13 7 107c29-130 68-110 87-68v-58l59 19v-58c19 13 43 23 39 20l19-39 58 19 20-39 39 20 19-39 39 19 19-39 49 20 49-20 19 39 39-19 19 39 39-20 20 39 58-19 19 39c-4 3 20-7 39-20v58l58-19v58c87 8 66-25 90 51-14-90-40-172-75-204" color="#000" font-family="sans-serif" overflow="visible" style="line-height:normal;font-variant-ligatures:normal;font-variant-position:normal;font-variant-caps:normal;font-variant-numeric:normal;font-variant-alternates:normal;font-feature-settings:normal;text-indent:0;text-align:start;text-decoration-line:none;text-decoration-style:solid;text-decoration-color:#000000;text-transform:none;text-orientation:mixed;white-space:normal;shape-padding:0;isolation:auto;mix-blend-mode:normal;solid-color:#000000;solid-opacity:1"/>
  <g stroke="#64341b">
    <path fill="#fff" stroke-width=".5" d="M114 76c7-6 4-3 6-4 4-4 6 5 7 12l-1 6-3 8s-1-4-6-8l-5-4-6-3 8-7z" transform="matrix(15.15487 0 0 13.63058 -912 -883)"/>
    <path fill="#e58e8e" stroke-width="7.345035" d="M775 287c90-97 136-117 136-117 30 71 23 154 0 214 0 0-58-78-136-97z"/>
    <g>
      <path fill="#fff" stroke-width=".5" d="M114 76c7-6 4-3 6-4 4-4 6 5 7 12l-1 6-3 8s-1-4-6-8l-5-4-6-3 8-7z" transform="matrix(-15.15487 0 0 13.63058 1936 -890)"/>
      <path fill="#e58e8e" stroke-width="7.345035" d="M249 280a495 495 0 00-136-117c-30 71-23 154 0 214 0 0 58-78 136-97z"/>
    </g>
  </g>
</svg>
