<svg xmlns="http://www.w3.org/2000/svg" width="256" height="256">
  <g transform="translate(0 -229)">
    <rect width="61.2" height="7.5" x="1" y="187" fill="none" rx="2.6" ry="2.6"/>
    <path fill="none" d="M3 172h82v28H3z"/>
    <path fill="#0071d4" d="M16 243h140v16H16zM16 266h170v16H16zM16 290h224v16H16zM16 314h202v16H16zM16 338h197v16H16zM16 361h207v16H16zM16 385h161v16H16zM16 409h58v16H16zM16 432h188v16H16zM16 456h140v16H16z"/>
    <g transform="scale(.25104) rotate(-15 2662 120)">
      <rect width="359" height="539" x="1" y="513" fill="#fff" stroke="#000" rx="29.9" ry="29.9"/>
      <path d="M102 790l13-16h143l-13 16zM30 542c-6 0-10 5-10 10v30a10 10 0 0011 10c2 3 5 5 9 5v-5c-2 0-3 0-4-2 2-1 4-4 4-8v-30c0-5-4-10-10-10zm0 5c3 0 5 3 5 5v32c-2-4-6-7-10-7v-25c0-2 2-5 5-5zm-5 35c3 0 5 3 5 5-3 0-5-2-5-5zM330 1022c6 0 10-4 10-10v-30a10 10 0 00-11-10c-2-3-5-5-9-5v5l4 2c-2 2-4 5-4 8v30c0 6 4 10 10 10zm0-5c-3 0-5-2-5-5v-30-2c2 4 6 7 10 7v25c0 3-2 5-5 5zm5-35c-3 0-5-2-5-5 3 0 5 3 5 5z"/>
      <path fill="#f55" d="M287 670l-22 75 1 9-3 8-4 5-5 1 8 1 16-21 51 36 1-81zM30 705v78l2-1 16-29-10-12 10-8-15-25z"/>
      <path fill="#5455aa" stroke="#55a" stroke-linecap="round" stroke-linejoin="round" stroke-width="2" d="M134 700l-34 30-9-3-7-1-9 3-1-3-3-2-4 2-7-6 54-39 9 8z"/>
      <path fill="#f55" d="M216 769l34-1-7-6-2-10-101-91-20 16 16 13 11 12 6 11 1 13h16z"/>
      <path fill="none" stroke="#55a" stroke-linecap="round" stroke-linejoin="round" stroke-width="2" d="M291 673l39 30"/>
      <path fill="#ff5" stroke="#55a" stroke-linecap="round" stroke-linejoin="round" stroke-width="2" d="M131 542a131 131 0 018 49c-1 9-2 17-5 25a116 116 0 0123 6l46-80z"/>
      <path fill="#f55" stroke="#55a" stroke-linecap="round" stroke-linejoin="round" stroke-width="2" d="M158 622l8 6 49-86h-12z"/>
      <path fill="none" stroke="#000100" stroke-linecap="round" stroke-linejoin="round" stroke-width="2" d="M190 542s4 6 1 11c-2 3-10 4-10 4s3 9 1 12c-3 4-13 3-13 3s5 11 3 15c-4 7-11 5-11 5s4 8-1 14c-3 3-13 2-13 2l4 8v3"/>
      <path stroke="#000100" stroke-linecap="round" stroke-linejoin="round" stroke-width="2" d="M160 596l-2 3c0 1-1 3-3 3-2 1-4 2-6 1l-2-6 5-5s-6-1-7-3 0-5 1-7 4-3 6-3c3 1 5 7 5 7l1-6 5-4 4 2c2 3 1 6 0 8l-6 5s1-4-2-5c-2-1-5 1-6 3s0 5 2 6c4 1 5-3 5-3v4zM179 561l-1 3-3 3c-2 1-5 2-6 1-2-1-3-4-2-6 0-2 4-5 4-5s-5-1-7-3c-1-2 0-5 1-7 2-2 5-3 7-3 2 1 4 7 4 7l2-6c2-3 7-3 9-2v8c-1 3-7 5-7 5s2-3-1-5c-2-1-6 1-7 3 0 2 0 6 2 6 4 1 6-2 6-2l-1 3z"/>
      <g stroke="#55a" stroke-linecap="round" stroke-linejoin="round" stroke-width="2">
        <g fill="none">
          <path d="M186 628c0 5 1 10 3 13M190 622l5 20M195 614c1 10 3 21 6 30M202 626l5 19M209 633l3 13M215 639l3 7"/>
        </g>
        <g fill="none">
          <path d="M251 542s0 13 7 20 16 10 16 10"/>
          <path d="M255 542s1 11 6 17c6 6 12 8 12 8"/>
          <path d="M258 542s2 8 6 13l10 7M263 542s1 6 4 9c3 4 7 6 7 6M267 542l3 7 4 3"/>
        </g>
        <g fill="none">
          <path d="M250 544s-1 9-9 18-22 8-22 8"/>
          <path d="M246 543s-1 9-8 16c-7 8-16 7-16 7"/>
          <path d="M242 543s-2 8-6 13c-4 4-12 5-12 5"/>
          <path d="M237 543s-1 6-4 9c-3 4-5 3-5 3"/>
        </g>
        <path fill="#55a" d="M275 579a518 518 0 0014 63l1 30-32-27s9-12 12-19c2-5 2-11 3-16l1-16 1-15z"/>
        <path fill="none" d="M253 589v7l2 8 2 9-1 4c0 2-2 2-3 3l-2 3"/>
        <path fill="#55a" d="M238 612l-3 6c1 1 2 3 4 3l4-1c2-1 3-4 5-3 1 0 2 1 1 2-1 2-4 1-6 1h-7l-1-4 3-4zM217 580s7-4 10-4h10l7 4-8-3h-11l-8 3z"/>
        <path fill="none" d="M238 587l3-3-7-2h-8l-6 3-7 7"/>
        <path fill="none" d="M216 592l10-5h12l2 5-4 2 4-1c-1 5-7 8-9 10"/>
        <path fill="none" d="M235 588s2 3 0 6c-2 2-5 1-7 1l-8-5 6-1c-1 2 0 4 1 5 2 1 4 2 6 1s3-4 3-5l-1-2z"/>
        <path fill="none" d="M231 589l-2 2c0 1 2 2 3 1l-1-3z"/>
        <g>
          <path fill="#55a" d="M272 578l-9-2c-3 1-8 7-8 7s5-5 9-5c3-1 8 2 8 2z"/>
          <path fill="none" d="M253 588l7-5h9c2 0 4 3 4 3"/>
          <path fill="none" d="M255 589l7-2 7 1 4 2s-2 3-4 3l-7 2-3-1-4-1 4 7"/>
          <path fill="none" d="M259 589c-2 3 0 3 0 4l1 2M264 590c-1 0-2 1-1 2h3v-2h-2z"/>
        </g>
        <g>
          <path fill="#55a" d="M235 633l8-2 5 2c3 0 6-3 9-2l1 2-2-1-7 2-8-1h-6z"/>
          <path fill="none" d="M242 640l5-2 6 2M242 636l6 2 5-1"/>
        </g>
        <path fill="none" d="M274 543v36c-1 13 0 26-2 39l-7 16c-2 5-3 9-7 12-3 3-6 4-10 5l-13-2a62 62 0 01-36-30l-2-9"/>
      </g>
      <path fill="#ff5" stroke="#000" stroke-linecap="round" stroke-linejoin="round" stroke-width="2" d="M302 604l10-17 9 17-10 15z"/>
      <path fill="#f55" stroke="#000" stroke-linecap="round" stroke-linejoin="round" stroke-width="2" d="M307 603l4-7 4 7-4 7z"/>
      <path fill="#ff5" stroke="#000" stroke-linecap="round" stroke-linejoin="round" stroke-width="2" d="M310 622c0 3-2 6-5 6s-5-3-5-6 2-5 5-5 5 2 5 5zM322 622c0 3-3 6-6 6s-5-3-5-6c0-4 2-6 5-6s6 2 6 6z"/>
      <ellipse cx="310.8" cy="193.3" fill="#ff5" stroke="#000" stroke-linecap="round" stroke-linejoin="round" stroke-width="2" rx="9" ry="8.3" transform="translate(0 512)"/>
      <path fill="#ff5" stroke="#000" stroke-linecap="round" stroke-linejoin="round" stroke-width="2" d="M311 697c-4-1-8-4-9-8-2-4 0-9 1-14l4-30 3-21c2 0 2 1 2 3l6 45c0 5 2 10 1 15-1 3-1 7-4 9-1 1-3 2-5 1z"/>
      <path fill="none" stroke="#000" stroke-linecap="round" stroke-linejoin="round" stroke-width="2" d="M311 644l3 25 2 14-1 6-4 4M312 701l3 6c0 1-1 3-3 3h-2"/>
      <path fill="#ff5" stroke="#000" stroke-linecap="round" stroke-linejoin="round" stroke-width="2" d="M306 768l-2-27c-1-6-2-12-1-18 0-2 1-5 3-7l5-2 6 2c2 2 2 6 3 10l-2 17-3 20-1 10z"/>
      <path fill="none" stroke="#000" stroke-linecap="round" stroke-linejoin="round" stroke-width="2" d="M311 719l4 4v8l-1 17-3 22"/>
      <path fill="#ff5" stroke="#000" stroke-linecap="round" stroke-linejoin="round" stroke-width="2" d="M180 639l-9 16 78 72 17-63 9-2-17-16-8 4h-11c-4 0-11-3-11-3l-20-1-18-4-10-3z"/>
      <path fill="none" stroke="#000" stroke-linecap="round" stroke-linejoin="round" stroke-width="2" d="M177 644a354 354 0 0036 8 201 201 0 0033 1l15-2M177 660a307 307 0 0038 7 160 160 0 0051-3M195 670s18 3 28 3a154 154 0 0036-2l-12 48z"/>
      <path fill="none" stroke="#000" stroke-linecap="round" stroke-linejoin="round" stroke-width="2" d="M212 678l22 1 18-2-8 33z"/>
      <path fill="none" stroke="#000" stroke-linecap="round" stroke-linejoin="round" stroke-width="2" d="M235 700l7 3 5-4M228 694l13 4 7-7"/>
      <path fill="none" stroke="#000" stroke-linecap="round" stroke-linejoin="round" stroke-width="2" d="M220 685l19 8 11-10"/>
      <path fill="none" stroke="#000" stroke-linecap="round" stroke-linejoin="round" stroke-width="2" d="M216 678l22 10 11-10"/>
      <path fill="none" stroke="#000" stroke-linecap="round" stroke-linejoin="round" stroke-width="2" d="M229 679l8 4 5-4M218 658h6v5l-6-1zM175 648l4 2-2 4-4-3zM183 652l6 1-1 5-6-2zM195 654l6 1-1 5-6-1zM207 657h6v5l-6-1zM230 659h6v4h-6zM241 658h6v5h-6zM252 658l5-1 1 4-5 1z"/>
      <path fill="none" stroke="#000" stroke-linecap="round" stroke-linejoin="round" stroke-width="2" d="M96 708l3-1 2 5h-5z" transform="matrix(.94614 -.32376 .24215 .97024 0 0)"/>
      <path stroke="#55a" stroke-linecap="round" stroke-linejoin="round" stroke-width="2" d="M275 661l12 10-22 75v9c-1 3-2 7-4 9s-5 4-8 4c-2 0-4-2-6-4-2-1-3-4-4-6v-5l-103-94 13-12 13-18 49-86h18l-14 27-22 38-17 30-9 17 78 72 17-62z"/>
      <path fill="none" stroke="#55a" stroke-linecap="round" stroke-linejoin="round" stroke-width="2" d="M140 659l-19 17-7 5-39 28-8 6-8 5-28-14"/>
      <path fill="#ff5" stroke="#55a" stroke-linecap="round" stroke-linejoin="round" stroke-width="2" d="M58 720l10 7 2-2 5 2c1 2-2 4-2 6l-3 7v11c0 4 2 7 3 11l-1 4c-2 2-7-1-7-1l-27 13 23 15 20 14 10-13 16-21 13-13c5-4 11-7 16-13l8-16c1-5 2-10 1-16-2-6-6-10-10-15l-21-19 5-4 20 16c5 6 11 12 14 20v18l-7 17c-4 6-10 9-15 13-3 3-7 4-9 7-6 5-12 11-16 17l-14 19-8 13-52-35 16-28-11-13 11-8-15-26 25 13z"/>
      <path fill="none" stroke="#55a" stroke-linecap="round" stroke-linejoin="round" stroke-width="2" d="M67 727l-3 10-2 16 3 12"/>
      <path fill="#ff5" stroke="#55a" stroke-linecap="round" stroke-linejoin="round" stroke-width="2" d="M77 723c-2 1-5 1-8-1-3-1-4-5-6-8h8l7 4 5 4-6 1z"/>
      <path fill="#ff5" stroke="#55a" stroke-linecap="round" stroke-linejoin="round" stroke-width="2" d="M65 701s1 4 3 5c2 3 5 4 8 5 4 2 8 3 11 6s6 11 6 11c-3-1-5-3-8-2l-4-7-9-4-8-3c-1-2-3-3-3-5l-1-7z"/>
      <path d="M54 718l9 18-7 7 6 10-8 17-9 3 10-19-6-12 7-7-11-21z"/>
      <path fill="#ff5" stroke="#55a" stroke-linecap="round" stroke-linejoin="round" stroke-width="2" d="M57 681s-4-5-3-8 3-5 5-6l6 2c2 1 3 4 3 6l-2 5 6-3c2 0 5 1 6 3v7c-1 2-1 4-3 4-3 2-9-2-9-2s2 6 1 9c0 2-3 3-5 3-3 0-6-2-7-5-1-2 1-7 1-7s-5 3-7 2c-3-1-5-3-5-5 0-3 2-6 5-7s8 2 8 2z"/>
      <path fill="none" stroke="#55a" stroke-linecap="round" stroke-linejoin="round" stroke-width="2" d="M53 685c3-2 7-4 9-9 2 5 5 7 8 9-3 2-6 3-8 9-2-3-4-7-9-9z"/>
      <path fill="#f55" stroke="#55a" stroke-linecap="round" stroke-linejoin="round" stroke-width="2" d="M55 680l-8-4-1-7 7 3zM67 678l2-7 8-4-3 9zM67 690l1 7 8 4-1-9zM56 689l-8 3-2 8 8-3z"/>
      <path fill="none" stroke="#55a" stroke-linecap="round" stroke-linejoin="round" stroke-width="2" d="M75 730c3-2 7-4 11-4 5 0 10 3 15 6 2 1 5 2 5 4s-2 4-4 4c-2 1-5-1-7-2l-7-1 13 4c2 1 4 3 4 5 0 1-2 3-4 3-3 1-6-2-10-3h-4c4 0 8 1 11 3 2 1 4 3 3 5 0 2-3 2-6 2-4 1-10-2-14-2l10 2c2 1 4 2 4 4s-3 2-5 2h-9l-7 1"/>
      <path fill="#ff5" stroke="#55a" stroke-linecap="round" stroke-linejoin="round" stroke-width="2" d="M94 727c-2-3-3-7-2-11l3-9 1-8 5 10a25 25 0 01-2 17l-2 3-3-2z"/>
      <g stroke="#55a" stroke-linecap="round" stroke-linejoin="round" stroke-width="2">
        <path fill="#55a" d="M123 716l13-5-5 15-1-4h-4s2-3 1-5l-4-1z"/>
        <path fill="none" d="M132 709v-1h1l-1 1zM138 715s0 0 0 0h1s0 0 0 0h-1z"/>
      </g>
      <path fill="#ff5" stroke="#55a" stroke-linecap="round" stroke-linejoin="round" stroke-width="2" d="M216 769l-46-42h-17c-1 10-4 16-9 24l16 1 19 18"/>
      <path style="line-height:normal;-inkscape-font-specification:Sans;text-indent:0;text-align:start;text-decoration-line:none;text-transform:none;marker:none" fill="#000200" d="M168 730h-14l-1 3h15l38 37h2v-2l-39-37-1-1z" color="#000" font-family="Sans" overflow="visible"/>
      <path fill="none" stroke="#55a" stroke-linecap="round" stroke-linejoin="round" stroke-width="2" d="M151 739h14l31 30"/>
      <path style="line-height:normal;-inkscape-font-specification:Sans;text-indent:0;text-align:start;text-decoration-line:none;text-transform:none;marker:none" fill="#000200" d="M149 744l-2 3 14 1 22 21h3v-2l-23-22h-1z" color="#000" font-family="Sans" overflow="visible"/>
      <path fill="none" stroke="#55a" stroke-linecap="round" stroke-linejoin="round" stroke-width="2" d="M121 770l140-1"/>
      <path style="line-height:normal;-inkscape-font-specification:Sans;text-indent:0;text-align:start;text-decoration-line:none;text-transform:none;marker:none" fill="#fff" d="M295 678l-7 5c-4 5-7 13-6 19l3 8c1 3 1 6-1 8s-6-1-6 2c1 2 5 2 7 1 2 0 3-5 4-5l1 14-5 7c-3 2-7-1-7-4 0-2-4-4-4-1 1 4 3 8 7 8 3 1 6 0 8-3-1 4-3 8-1 11s8 5 8 1c-1-2-5 0-6-3l2-8c2-4 1-10 1-14-1-6-2-11-5-16l-2-4c2 2 5 2 8 1 2-1 6-6 2-7-2 1-3 6-6 4-3-1-6-3-5-6s3-11 10-15c2-1 2-3 0-3z" color="#000" font-family="Sans" overflow="visible"/>
      <g fill="#fff">
        <path d="M138 670c-5-1-11 5-9 11 1 3 7 5 9 3 1-2 0-3-1-3-8 2-6-9 0-8 6-1 8 5 9 9 2 5 1 11 3 16 2 8 6 16 13 20 5 3 11 2 17 0 5 0 12-2 16 2 4 3 7 8 6 12-2 4-7 7-11 3-3-2 0-6-2-9-1-1-3 1-2 2-1 5 0 9 5 11 3 3 9-2 11-2 0 6 2 12 4 17 4 6 12 6 18 5 4-3 13-3 13 2-1 4-4 2-7 2-1 0-1 3 1 3 5 4 13-5 8-10-3-3-11-2-12-2 3-5 0-12-6-13-3-1-7 1-8 4-1 1 2 2 3 0 4-4 12 2 8 7-2 4-6 5-10 4-7-2-7-9-9-15-1-6 1-14-4-19-4-6-10-8-17-7-2 0-8 2-4-2 3-5 2-13-5-15l-7-3c-4-2-11-1-12-7-1-3 3-4 3-7-1-1-3-1-4 1-4 5-1 13 5 14 3 1 7 1 3 3s-2 8 2 10c1 0 2-3 0-3-4-6 6-9 10-5 5 2 4 9 1 13-2 4-8 3-11 1-8-3-11-10-13-18-2-5-1-12-3-17s-5-11-11-10z" style="line-height:normal;-inkscape-font-specification:Sans;text-indent:0;text-align:start;text-decoration-line:none;text-transform:none;marker:none" color="#000" font-family="Sans" overflow="visible"/>
        <path d="M144 689c0 1-1 2-3 2l-2-2 2-2c2 0 3 1 3 2zM189 708c0 2-1 2-2 2s-2 0-2-2l2-2 2 2zM182 726l-2 2-2-2 2-2 2 2zM214 734l-2 2-2-2c0-2 1-2 2-2s2 0 2 2z"/>
      </g>
      <path fill="#ff5" d="M175 669v5l-3 6-2 2c0 1 2 3 4 3s3-2 3-4l1-7-3-5zM181 673l1 4-2 4-1 2c0 1 2 2 3 1 2 0 2-2 2-3 1-2 0-3-1-5l-2-3zM186 678l1 3-2 5-1 2 3 1c2 0 2-2 2-3 1-2 0-3-1-5l-2-3zM161 659v3l-2 2-1 1 2 2 3-2v-3l-2-3zM165 659l1 4-2 4-1 2c0 1 2 2 3 1 2 0 2-2 2-3 1-1 0-3-1-4l-2-4zM170 664l1 4-2 4-1 2c0 1 2 2 3 1 2 0 2-2 2-3 1-2 0-3-1-5l-2-3zM192 683v6l-3 6-2 2c0 2 2 3 3 3 2 0 3-2 4-4v-7l-2-6zM197 688l1 3-1 5-2 2 4 1 2-3-1-5-3-3zM202 693l1 3-1 5-2 2 3 1c2 0 2-2 3-3l-1-5-3-3zM208 698v5l-3 6c-1 0-3 1-2 2 0 1 1 3 3 3s3-2 4-4v-7l-2-5zM212 702l1 3-2 5-1 2 3 1c2 0 2-2 2-3 1-2 0-3-1-5l-2-3z"/>
      <path fill="#ff5" d="M216 706l1 3-1 5-2 2 4 1 2-3-1-5-3-3zM222 711v5l-3 6c-1 1-3 1-2 2 0 2 1 3 3 3s3-2 4-4v-6l-2-6zM226 715l1 4-1 4-2 2c1 1 2 2 4 1l2-3-1-5-3-3zM231 720l1 3-2 5-1 1 3 2c2-1 2-2 2-4 1-1 0-3-1-4l-2-3zM237 723v6l-3 5-2 2c0 2 2 4 3 4 2 0 3-3 4-4v-7l-2-6zM241 728l1 3-1 5-2 1c1 2 2 2 4 2l2-3-1-5-3-3zM262 704l2 4 5 4 2 2-1 2h-4c-2-1-3-4-4-6v-6zM260 710l2 3 2 3 2 2-3 2-3-3v-4-3z"/>
      <path fill="#ff5" d="M259 715l1 4 3 3 2 1-2 3-4-2-1-4 1-5zM257 723l2 4 5 4 2 2-1 2h-4c-2-1-3-4-4-6v-6zM266 694l1 2 1 2 2 3-2 2-2-3-1-4 1-2zM265 700v2l3 3 2 1-2 2-3-2-1-3 1-3zM267 688l2 4 5 4 1 1-1 2h-3l-4-5v-6zM271 678l1 2 1 3 3 2-3 2-2-3-1-4 1-2zM269 684l1 2 3 3 1 1-1 2c-2 0-3-1-3-2l-1-3v-3zM272 670l1 4 6 5 1 1-1 2h-4c-2-1-3-4-3-6v-6zM275 662l1 1 2 2 2 2-2 1-2-2-1-2v-2z"/>
      <path fill="#ff5" d="M274 666l1 3 2 2 2 1-2 2-3-1-1-4 1-3z"/>
      <path style="line-height:normal;-inkscape-font-specification:Sans;text-indent:0;text-align:start;text-decoration-line:none;text-transform:none;marker:none" fill="#ff5" d="M254 735c-4 0-7 3-8 6-2 3-3 7-2 10 0 3 0 7 2 10s5 6 8 6c4 0 6-3 8-6l2-10-2-10c-2-3-5-6-8-6zm0 3c2 0 4 1 5 4l2 9-2 9c-1 2-3 4-5 4s-4-2-5-4c-2-3-2-6-2-9-1-2 0-6 2-9 1-2 3-4 5-4z" color="#000" font-family="Sans" overflow="visible"/>
      <path fill="#ff5" d="M253 751s-3-2-4-1l-1 2 2 1c1 1 3-2 3-2zM255 751l2-2h3l-2 3-3-1zM253 749s-3-2-3-4l2-4c2 0 3 2 4 3 0 2-3 5-3 5zM254 754s-3 3-2 5l2 2c2 0 3-2 3-3 0-2-3-4-3-4z"/>
      <g stroke="#55a" stroke-linecap="round" stroke-linejoin="round" stroke-width="2">
        <path fill="#55a" d="M122 205l14-7-6 16v-5c-1-1-5 1-5 1s2-3 1-4l-4-1z" transform="matrix(.99983 0 0 .98208 -5 542)"/>
        <path fill="none" d="M132 709v-1h1l-1 1zM138 715s0 0 0 0h1s0 0 0 0h-1z" transform="matrix(.99983 0 0 .98208 -5 39)"/>
      </g>
      <g stroke="#55a" stroke-linecap="round" stroke-linejoin="round" stroke-width="2">
        <path fill="#55a" d="M108 729l13-6-5 16-1-5-4 1s2-3 1-5l-4-1z"/>
        <path fill="none" d="M117 721s-1 0 0 0c0-1 0-1 0 0 1 0 0 0 0 0zM123 728v-1l1 1s0 0 0 0h-1z"/>
      </g>
      <g stroke="#55a" stroke-linecap="round" stroke-linejoin="round" stroke-width="2.3">
        <path fill="#55a" d="M119 206l17-8-5 16-1-5c-2-1-6 2-6 2s3-3 2-5h-7z" transform="matrix(.78618 0 0 .93017 0 574)"/>
        <path fill="none" d="M133 709v-1h1l-1 1zM139 715l1-1s0 0 0 0v1h-1z" transform="matrix(.78618 0 0 .93017 0 97)"/>
      </g>
      <g stroke="#55a" stroke-linecap="round" stroke-linejoin="round" stroke-width="2">
        <path fill="#55a" d="M57 778l13-6-5 15-1-4h-4s2-3 1-4c-1-2-4-1-4-1z"/>
        <path fill="none" d="M66 770v-1h1l-1 1zM72 777v-1h1v1h-1z"/>
      </g>
      <g stroke="#55a" stroke-linecap="round" stroke-linejoin="round" stroke-width="2">
        <path fill="#55a" d="M72 789l14-6-5 15s0-3-2-4c-1-1-3 1-3 1v-5l-4-1z"/>
        <path fill="none" d="M81 781v-1h1l-1 1zM88 788v-1h1l-1 1s0 0 0 0z"/>
      </g>
      <g transform="rotate(180 180 782)">
        <path fill="#f55" d="M287 670l-22 75 1 9-3 8-4 5-5 1 8 1 14-23 53 36 1-79zM30 705v78l2-1 16-29-10-12 10-8-15-25z"/>
        <path fill="#5455aa" stroke="#55a" stroke-linecap="round" stroke-linejoin="round" stroke-width="2" d="M134 700l-34 30-9-3-7-1-9 3-1-3-3-2-4 2-7-6 54-39 9 8z"/>
        <path fill="#f55" d="M216 769l34-1-7-6-2-10-101-91-20 16 16 13 11 12 6 11 1 13h16z"/>
        <path fill="none" stroke="#55a" stroke-linecap="round" stroke-linejoin="round" stroke-width="2" d="M291 673l39 30"/>
        <path fill="#ff5" stroke="#55a" stroke-linecap="round" stroke-linejoin="round" stroke-width="2" d="M131 542a131 131 0 018 49c-1 9-2 17-5 25a116 116 0 0123 6l46-80z"/>
        <path fill="#f55" stroke="#55a" stroke-linecap="round" stroke-linejoin="round" stroke-width="2" d="M158 622l8 6 49-86h-12z"/>
        <path fill="none" stroke="#000100" stroke-linecap="round" stroke-linejoin="round" stroke-width="2" d="M190 542s4 6 1 11c-2 3-10 4-10 4s3 9 1 12c-3 4-13 3-13 3s5 11 3 15c-4 7-11 5-11 5s4 8-1 14c-3 3-13 2-13 2l4 8v3"/>
        <path stroke="#000100" stroke-linecap="round" stroke-linejoin="round" stroke-width="2" d="M160 596l-2 3c0 1-1 3-3 3-2 1-4 2-6 1l-2-6 5-5s-6-1-7-3 0-5 1-7 4-3 6-3c3 1 5 7 5 7l1-6 5-4 4 2c2 3 1 6 0 8l-6 5s1-4-2-5c-2-1-5 1-6 3s0 5 2 6c4 1 5-3 5-3v4zM179 561l-1 3-3 3c-2 1-5 2-6 1-2-1-3-4-2-6 0-2 4-5 4-5s-5-1-7-3c-1-2 0-5 1-7 2-2 5-3 7-3 2 1 4 7 4 7l2-6c2-3 7-3 9-2v8c-1 3-7 5-7 5s2-3-1-5c-2-1-6 1-7 3 0 2 0 6 2 6 4 1 6-2 6-2l-1 3z"/>
        <g stroke="#55a" stroke-linecap="round" stroke-linejoin="round" stroke-width="2">
          <g fill="none">
            <path d="M186 628c0 5 1 10 3 13M190 622l5 20M195 614c1 10 3 21 6 30M202 626l5 19M209 633l3 13M215 639l3 7"/>
          </g>
          <g fill="none">
            <path d="M251 542s0 13 7 20 16 10 16 10"/>
            <path d="M255 542s1 11 6 17c6 6 12 8 12 8"/>
            <path d="M258 542s2 8 6 13l10 7M263 542s1 6 4 9c3 4 7 6 7 6M267 542l3 7 4 3"/>
          </g>
          <g fill="none">
            <path d="M250 544s-1 9-9 18-22 8-22 8"/>
            <path d="M246 543s-1 9-8 16c-7 8-16 7-16 7"/>
            <path d="M242 543s-2 8-6 13c-4 4-12 5-12 5"/>
            <path d="M237 543s-1 6-4 9c-3 4-5 3-5 3"/>
          </g>
          <path fill="#55a" d="M275 579a518 518 0 0014 63l1 30-32-27s9-12 12-19c2-5 2-11 3-16l1-16 1-15z"/>
          <path fill="none" d="M253 589v7l2 8 2 9-1 4c0 2-2 2-3 3l-2 3"/>
          <path fill="#55a" d="M238 612l-3 6c1 1 2 3 4 3l4-1c2-1 3-4 5-3 1 0 2 1 1 2-1 2-4 1-6 1h-7l-1-4 3-4zM217 580s7-4 10-4h10l7 4-8-3h-11l-8 3z"/>
          <path fill="none" d="M238 587l3-3-7-2h-8l-6 3-7 7"/>
          <path fill="none" d="M216 592l10-5h12l2 5-4 2 4-1c-1 5-7 8-9 10"/>
          <path fill="none" d="M235 588s2 3 0 6c-2 2-5 1-7 1l-8-5 6-1c-1 2 0 4 1 5 2 1 4 2 6 1s3-4 3-5l-1-2z"/>
          <path fill="none" d="M231 589l-2 2c0 1 2 2 3 1l-1-3z"/>
          <g>
            <path fill="#55a" d="M272 578l-9-2c-3 1-8 7-8 7s5-5 9-5c3-1 8 2 8 2z"/>
            <path fill="none" d="M253 588l7-5h9c2 0 4 3 4 3"/>
            <path fill="none" d="M255 589l7-2 7 1 4 2s-2 3-4 3l-7 2-3-1-4-1 4 7"/>
            <path fill="none" d="M259 589c-2 3 0 3 0 4l1 2M264 590c-1 0-2 1-1 2h3v-2h-2z"/>
          </g>
          <g>
            <path fill="#55a" d="M235 633l8-2 5 2c3 0 6-3 9-2l1 2-2-1-7 2-8-1h-6z"/>
            <path fill="none" d="M242 640l5-2 6 2M242 636l6 2 5-1"/>
          </g>
          <path fill="none" d="M274 543v36c-1 13 0 26-2 39l-7 16c-2 5-3 9-7 12-3 3-6 4-10 5l-13-2a62 62 0 01-36-30l-2-9"/>
        </g>
        <path fill="#ff5" stroke="#000" stroke-linecap="round" stroke-linejoin="round" stroke-width="2" d="M302 604l10-17 9 17-10 15z"/>
        <path fill="#f55" stroke="#000" stroke-linecap="round" stroke-linejoin="round" stroke-width="2" d="M307 603l4-7 4 7-4 7z"/>
        <path fill="#ff5" stroke="#000" stroke-linecap="round" stroke-linejoin="round" stroke-width="2" d="M310 622c0 3-2 6-5 6s-5-3-5-6 2-5 5-5 5 2 5 5zM322 622c0 3-3 6-6 6s-5-3-5-6c0-4 2-6 5-6s6 2 6 6z"/>
        <ellipse cx="310.8" cy="193.3" fill="#ff5" stroke="#000" stroke-linecap="round" stroke-linejoin="round" stroke-width="2" rx="9" ry="8.3" transform="translate(0 512)"/>
        <path fill="#ff5" stroke="#000" stroke-linecap="round" stroke-linejoin="round" stroke-width="2" d="M311 697c-4-1-8-4-9-8-2-4 0-9 1-14l4-30 3-21c2 0 2 1 2 3l6 45c0 5 2 10 1 15-1 3-1 7-4 9-1 1-3 2-5 1z"/>
        <path fill="none" stroke="#000" stroke-linecap="round" stroke-linejoin="round" stroke-width="2" d="M311 644l3 25 2 14-1 6-4 4M312 701l3 6c0 1-1 3-3 3h-2"/>
        <path fill="#ff5" stroke="#000" stroke-linecap="round" stroke-linejoin="round" stroke-width="2" d="M306 768l-2-27c-1-6-2-12-1-18 0-2 1-5 3-7l5-2 6 2c2 2 2 6 3 10l-2 17-3 20-1 10z"/>
        <path fill="none" stroke="#000" stroke-linecap="round" stroke-linejoin="round" stroke-width="2" d="M311 719l4 4v8l-1 17-3 22"/>
        <path fill="#ff5" stroke="#000" stroke-linecap="round" stroke-linejoin="round" stroke-width="2" d="M180 639l-9 16 78 72 17-63 9-2-17-16-8 4h-11c-4 0-11-3-11-3l-20-1-18-4-10-3z"/>
        <path fill="none" stroke="#000" stroke-linecap="round" stroke-linejoin="round" stroke-width="2" d="M177 644a354 354 0 0036 8 201 201 0 0033 1l15-2M177 660a307 307 0 0038 7 160 160 0 0051-3M195 670s18 3 28 3a154 154 0 0036-2l-12 48z"/>
        <path fill="none" stroke="#000" stroke-linecap="round" stroke-linejoin="round" stroke-width="2" d="M212 678l22 1 18-2-8 33z"/>
        <path fill="none" stroke="#000" stroke-linecap="round" stroke-linejoin="round" stroke-width="2" d="M235 700l7 3 5-4M228 694l13 4 7-7"/>
        <path fill="none" stroke="#000" stroke-linecap="round" stroke-linejoin="round" stroke-width="2" d="M220 685l19 8 11-10"/>
        <path fill="none" stroke="#000" stroke-linecap="round" stroke-linejoin="round" stroke-width="2" d="M216 678l22 10 11-10"/>
        <path fill="none" stroke="#000" stroke-linecap="round" stroke-linejoin="round" stroke-width="2" d="M229 679l8 4 5-4M218 658h6v5l-6-1zM175 648l4 2-2 4-4-3zM183 652l6 1-1 5-6-2zM195 654l6 1-1 5-6-1zM207 657h6v5l-6-1zM230 659h6v4h-6zM241 658h6v5h-6zM252 658l5-1 1 4-5 1z"/>
        <path fill="none" stroke="#000" stroke-linecap="round" stroke-linejoin="round" stroke-width="2" d="M96 708l3-1 2 5h-5z" transform="matrix(.94614 -.32376 .24215 .97024 0 0)"/>
        <path stroke="#55a" stroke-linecap="round" stroke-linejoin="round" stroke-width="2" d="M275 661l12 10-22 75v9c-1 3-2 7-4 9s-5 4-8 4c-2 0-4-2-6-4-2-1-3-4-4-6v-5l-103-94 13-12 13-18 49-86h18l-14 27-22 38-17 30-9 17 78 72 17-62z"/>
        <path fill="none" stroke="#55a" stroke-linecap="round" stroke-linejoin="round" stroke-width="2" d="M140 659l-19 17-7 5-39 28-8 6-8 5-28-14"/>
        <path fill="#ff5" stroke="#55a" stroke-linecap="round" stroke-linejoin="round" stroke-width="2" d="M58 720l10 7 2-2 5 2c1 2-2 4-2 6l-3 7v11c0 4 2 7 3 11l-1 4c-2 2-7-1-7-1l-27 13 23 15 20 14 10-13 16-21 13-13c5-4 11-7 16-13l8-16c1-5 2-10 1-16-2-6-6-10-10-15l-21-19 5-4 20 16c5 6 11 12 14 20v18l-7 17c-4 6-10 9-15 13-3 3-7 4-9 7-6 5-12 11-16 17l-14 19-8 13-52-35 16-28-11-13 11-8-15-26 25 13z"/>
        <path fill="none" stroke="#55a" stroke-linecap="round" stroke-linejoin="round" stroke-width="2" d="M67 727l-3 10-2 16 3 12"/>
        <path fill="#ff5" stroke="#55a" stroke-linecap="round" stroke-linejoin="round" stroke-width="2" d="M77 723c-2 1-5 1-8-1-3-1-4-5-6-8h8l7 4 5 4-6 1z"/>
        <path fill="#ff5" stroke="#55a" stroke-linecap="round" stroke-linejoin="round" stroke-width="2" d="M65 701s1 4 3 5c2 3 5 4 8 5 4 2 8 3 11 6s6 11 6 11c-3-1-5-3-8-2l-4-7-9-4-8-3c-1-2-3-3-3-5l-1-7z"/>
        <path d="M54 718l9 18-7 7 6 10-8 17-9 3 10-19-6-12 7-7-11-21z"/>
        <path fill="#ff5" stroke="#55a" stroke-linecap="round" stroke-linejoin="round" stroke-width="2" d="M57 681s-4-5-3-8 3-5 5-6l6 2c2 1 3 4 3 6l-2 5 6-3c2 0 5 1 6 3v7c-1 2-1 4-3 4-3 2-9-2-9-2s2 6 1 9c0 2-3 3-5 3-3 0-6-2-7-5-1-2 1-7 1-7s-5 3-7 2c-3-1-5-3-5-5 0-3 2-6 5-7s8 2 8 2z"/>
        <path fill="none" stroke="#55a" stroke-linecap="round" stroke-linejoin="round" stroke-width="2" d="M53 685c3-2 7-4 9-9 2 5 5 7 8 9-3 2-6 3-8 9-2-3-4-7-9-9z"/>
        <path fill="#f55" stroke="#55a" stroke-linecap="round" stroke-linejoin="round" stroke-width="2" d="M55 680l-8-4-1-7 7 3zM67 678l2-7 8-4-3 9zM67 690l1 7 8 4-1-9zM56 689l-8 3-2 8 8-3z"/>
        <path fill="none" stroke="#55a" stroke-linecap="round" stroke-linejoin="round" stroke-width="2" d="M75 730c3-2 7-4 11-4 5 0 10 3 15 6 2 1 5 2 5 4s-2 4-4 4c-2 1-5-1-7-2l-7-1 13 4c2 1 4 3 4 5 0 1-2 3-4 3-3 1-6-2-10-3h-4c4 0 8 1 11 3 2 1 4 3 3 5 0 2-3 2-6 2-4 1-10-2-14-2l10 2c2 1 4 2 4 4s-3 2-5 2h-9l-7 1"/>
        <path fill="#ff5" stroke="#55a" stroke-linecap="round" stroke-linejoin="round" stroke-width="2" d="M94 727c-2-3-3-7-2-11l3-9 1-8 5 10a25 25 0 01-2 17l-2 3-3-2z"/>
        <g stroke="#55a" stroke-linecap="round" stroke-linejoin="round" stroke-width="2">
          <path fill="#55a" d="M123 716l13-5-5 15-1-4h-4s2-3 1-5l-4-1z"/>
          <path fill="none" d="M132 709v-1h1l-1 1zM138 715s0 0 0 0h1s0 0 0 0h-1z"/>
        </g>
        <path fill="#ff5" stroke="#55a" stroke-linecap="round" stroke-linejoin="round" stroke-width="2" d="M216 769l-46-42h-17c-1 10-4 16-9 24l16 1 19 18"/>
        <path style="line-height:normal;-inkscape-font-specification:Sans;text-indent:0;text-align:start;text-decoration-line:none;text-transform:none;marker:none" fill="#000200" d="M168 730h-14l-1 3h15l38 37h2v-2l-39-37-1-1z" color="#000" font-family="Sans" overflow="visible"/>
        <path fill="none" stroke="#55a" stroke-linecap="round" stroke-linejoin="round" stroke-width="2" d="M151 739h14l31 30"/>
        <path style="line-height:normal;-inkscape-font-specification:Sans;text-indent:0;text-align:start;text-decoration-line:none;text-transform:none;marker:none" fill="#000200" d="M149 744l-2 3 14 1 22 21h3v-2l-23-22h-1z" color="#000" font-family="Sans" overflow="visible"/>
        <path fill="none" stroke="#55a" stroke-linecap="round" stroke-linejoin="round" stroke-width="2" d="M121 770l140-1"/>
        <path style="line-height:normal;-inkscape-font-specification:Sans;text-indent:0;text-align:start;text-decoration-line:none;text-transform:none;marker:none" fill="#fff" d="M295 678l-7 5c-4 5-7 13-6 19l3 8c1 3 1 6-1 8s-6-1-6 2c1 2 5 2 7 1 2 0 3-5 4-5l1 14-5 7c-3 2-7-1-7-4 0-2-4-4-4-1 1 4 3 8 7 8 3 1 6 0 8-3-1 4-3 8-1 11s8 5 8 1c-1-2-5 0-6-3l2-8c2-4 1-10 1-14-1-6-2-11-5-16l-2-4c2 2 5 2 8 1 2-1 6-6 2-7-2 1-3 6-6 4-3-1-6-3-5-6s3-11 10-15c2-1 2-3 0-3z" color="#000" font-family="Sans" overflow="visible"/>
        <g fill="#fff">
          <path d="M138 670c-5-1-11 5-9 11 1 3 7 5 9 3 1-2 0-3-1-3-8 2-6-9 0-8 6-1 8 5 9 9 2 5 1 11 3 16 2 8 6 16 13 20 5 3 11 2 17 0 5 0 12-2 16 2 4 3 7 8 6 12-2 4-7 7-11 3-3-2 0-6-2-9-1-1-3 1-2 2-1 5 0 9 5 11 3 3 9-2 11-2 0 6 2 12 4 17 4 6 12 6 18 5 4-3 13-3 13 2-1 4-4 2-7 2-1 0-1 3 1 3 5 4 13-5 8-10-3-3-11-2-12-2 3-5 0-12-6-13-3-1-7 1-8 4-1 1 2 2 3 0 4-4 12 2 8 7-2 4-6 5-10 4-7-2-7-9-9-15-1-6 1-14-4-19-4-6-10-8-17-7-2 0-8 2-4-2 3-5 2-13-5-15l-7-3c-4-2-11-1-12-7-1-3 3-4 3-7-1-1-3-1-4 1-4 5-1 13 5 14 3 1 7 1 3 3s-2 8 2 10c1 0 2-3 0-3-4-6 6-9 10-5 5 2 4 9 1 13-2 4-8 3-11 1-8-3-11-10-13-18-2-5-1-12-3-17s-5-11-11-10z" style="line-height:normal;-inkscape-font-specification:Sans;text-indent:0;text-align:start;text-decoration-line:none;text-transform:none;marker:none" color="#000" font-family="Sans" overflow="visible"/>
          <path d="M144 689c0 1-1 2-3 2l-2-2 2-2c2 0 3 1 3 2zM189 708c0 2-1 2-2 2s-2 0-2-2l2-2 2 2zM182 726l-2 2-2-2 2-2 2 2zM214 734l-2 2-2-2c0-2 1-2 2-2s2 0 2 2z"/>
        </g>
        <path fill="#ff5" d="M175 669v5l-3 6-2 2c0 1 2 3 4 3s3-2 3-4l1-7-3-5zM181 673l1 4-2 4-1 2c0 1 2 2 3 1 2 0 2-2 2-3 1-2 0-3-1-5l-2-3zM186 678l1 3-2 5-1 2 3 1c2 0 2-2 2-3 1-2 0-3-1-5l-2-3zM161 659v3l-2 2-1 1 2 2 3-2v-3l-2-3zM165 659l1 4-2 4-1 2c0 1 2 2 3 1 2 0 2-2 2-3 1-1 0-3-1-4l-2-4zM170 664l1 4-2 4-1 2c0 1 2 2 3 1 2 0 2-2 2-3 1-2 0-3-1-5l-2-3zM192 683v6l-3 6-2 2c0 2 2 3 3 3 2 0 3-2 4-4v-7l-2-6zM197 688l1 3-1 5-2 2 4 1 2-3-1-5-3-3zM202 693l1 3-1 5-2 2 3 1c2 0 2-2 3-3l-1-5-3-3zM208 698v5l-3 6c-1 0-3 1-2 2 0 1 1 3 3 3s3-2 4-4v-7l-2-5zM212 702l1 3-2 5-1 2 3 1c2 0 2-2 2-3 1-2 0-3-1-5l-2-3z"/>
        <path fill="#ff5" d="M216 706l1 3-1 5-2 2 4 1 2-3-1-5-3-3zM222 711v5l-3 6c-1 1-3 1-2 2 0 2 1 3 3 3s3-2 4-4v-6l-2-6zM226 715l1 4-1 4-2 2c1 1 2 2 4 1l2-3-1-5-3-3zM231 720l1 3-2 5-1 1 3 2c2-1 2-2 2-4 1-1 0-3-1-4l-2-3zM237 723v6l-3 5-2 2c0 2 2 4 3 4 2 0 3-3 4-4v-7l-2-6zM241 728l1 3-1 5-2 1c1 2 2 2 4 2l2-3-1-5-3-3zM262 704l2 4 5 4 2 2-1 2h-4c-2-1-3-4-4-6v-6zM260 710l2 3 2 3 2 2-3 2-3-3v-4-3z"/>
        <path fill="#ff5" d="M259 715l1 4 3 3 2 1-2 3-4-2-1-4 1-5zM257 723l2 4 5 4 2 2-1 2h-4c-2-1-3-4-4-6v-6zM266 694l1 2 1 2 2 3-2 2-2-3-1-4 1-2zM265 700v2l3 3 2 1-2 2-3-2-1-3 1-3zM267 688l2 4 5 4 1 1-1 2h-3l-4-5v-6zM271 678l1 2 1 3 3 2-3 2-2-3-1-4 1-2zM269 684l1 2 3 3 1 1-1 2c-2 0-3-1-3-2l-1-3v-3zM272 670l1 4 6 5 1 1-1 2h-4c-2-1-3-4-3-6v-6zM275 662l1 1 2 2 2 2-2 1-2-2-1-2v-2z"/>
        <path fill="#ff5" d="M274 666l1 3 2 2 2 1-2 2-3-1-1-4 1-3z"/>
        <path style="line-height:normal;-inkscape-font-specification:Sans;text-indent:0;text-align:start;text-decoration-line:none;text-transform:none;marker:none" fill="#ff5" d="M254 735c-4 0-7 3-8 6-2 3-3 7-2 10 0 3 0 7 2 10s5 6 8 6c4 0 6-3 8-6l2-10-2-10c-2-3-5-6-8-6zm0 3c2 0 4 1 5 4l2 9-2 9c-1 2-3 4-5 4s-4-2-5-4c-2-3-2-6-2-9-1-2 0-6 2-9 1-2 3-4 5-4z" color="#000" font-family="Sans" overflow="visible"/>
        <path fill="#ff5" d="M253 751s-3-2-4-1l-1 2 2 1c1 1 3-2 3-2zM255 751l2-2h3l-2 3-3-1zM253 749s-3-2-3-4l2-4c2 0 3 2 4 3 0 2-3 5-3 5zM254 754s-3 3-2 5l2 2c2 0 3-2 3-3 0-2-3-4-3-4z"/>
        <g stroke="#55a" stroke-linecap="round" stroke-linejoin="round" stroke-width="2">
          <path fill="#55a" d="M122 205l14-7-6 16v-5c-1-1-5 1-5 1s2-3 1-4l-4-1z" transform="matrix(.99983 0 0 .98208 -5 542)"/>
          <path fill="none" d="M132 709v-1h1l-1 1zM138 715s0 0 0 0h1s0 0 0 0h-1z" transform="matrix(.99983 0 0 .98208 -5 39)"/>
        </g>
        <g stroke="#55a" stroke-linecap="round" stroke-linejoin="round" stroke-width="2">
          <path fill="#55a" d="M108 729l13-6-5 16-1-5-4 1s2-3 1-5l-4-1z"/>
          <path fill="none" d="M117 721s-1 0 0 0c0-1 0-1 0 0 1 0 0 0 0 0zM123 728v-1l1 1s0 0 0 0h-1z"/>
        </g>
        <g stroke="#55a" stroke-linecap="round" stroke-linejoin="round" stroke-width="2.3">
          <path fill="#55a" d="M119 206l17-8-5 16-1-5c-2-1-6 2-6 2s3-3 2-5h-7z" transform="matrix(.78618 0 0 .93017 0 574)"/>
          <path fill="none" d="M133 709v-1h1l-1 1zM139 715l1-1s0 0 0 0v1h-1z" transform="matrix(.78618 0 0 .93017 0 97)"/>
        </g>
        <g stroke="#55a" stroke-linecap="round" stroke-linejoin="round" stroke-width="2">
          <path fill="#55a" d="M57 778l13-6-5 15-1-4h-4s2-3 1-4c-1-2-4-1-4-1z"/>
          <path fill="none" d="M66 770v-1h1l-1 1zM72 777v-1h1v1h-1z"/>
        </g>
        <g stroke="#55a" stroke-linecap="round" stroke-linejoin="round" stroke-width="2">
          <path fill="#55a" d="M72 789l14-6-5 15s0-3-2-4c-1-1-3 1-3 1v-5l-4-1z"/>
          <path fill="none" d="M81 781v-1h1l-1 1zM88 788v-1h1l-1 1s0 0 0 0z"/>
        </g>
      </g>
      <path fill="none" stroke="#55a" stroke-width="2" d="M60 542h270v360M30 662v360h270"/>
      <path d="M95 613c1 4 5 14 12 14 9 0 13-8 13-18 0-7-3-11-5-17l-10-16-15-19-15 19-10 16c-2 6-5 10-5 17 0 10 4 18 13 18 7 0 11-10 12-14 1-1 1 0 1 1l-2 16-4 17c5-2 15-2 20 0l-4-17-2-16c0-1 0-2 1-1zM33 630c0 2 2 7 6 7s6-4 6-9l-2-8-5-8-8-10-7 10-5 8c-2 3-3 5-3 8 0 5 2 9 7 9 3 0 5-5 6-7v1l-1 8-2 8h10l-2-8-1-8 1-1zM265 951c-1-4-5-14-12-14-9 0-13 8-13 18 0 7 3 12 5 17l10 16 15 19 15-19 10-16c2-5 5-10 5-17 0-10-4-18-13-18-7 0-11 10-12 14-1 1-1 0-1-1l2-16 4-17c-5 2-15 2-20 0l4 17 2 16c0 1 0 2-1 1zM328 934c-1-2-3-7-6-7-5 0-7 4-7 9 0 4 1 6 3 9l5 8 7 9 8-9 5-8 2-9c0-5-2-9-6-9s-6 5-6 7h-1l1-8 2-9h-10l2 9 1 8s0 1 0 0z"/>
    </g>
    <g transform="matrix(.25104 0 0 .25104 83 158)">
      <rect width="359" height="539" x="1" y="513" fill="#fff" stroke="#000" rx="29.9" ry="29.9"/>
      <path fill="#f55" d="M30 542c-6 0-10 5-10 10v5c0 3 1 6 3 8-2 2-3 4-3 7v10a10 10 0 1020 0v-10c0-3-1-5-3-7 2-2 3-5 3-8v-5c0-5-4-10-10-10zm0 5c3 0 5 3 5 5v5a5 5 0 11-10 0v-5c0-2 2-5 5-5zm0 20c3 0 5 3 5 5v10a5 5 0 11-10 0v-10c0-2 2-5 5-5zM330 1022c-6 0-10-4-10-10v-5c0-3 1-5 3-7-2-2-3-5-3-8v-10a10 10 0 1120 0v10c0 3-1 6-3 8 2 2 3 4 3 7v5c0 6-4 10-10 10zm0-5c3 0 5-2 5-5v-5a5 5 0 10-10 0v5c0 3 2 5 5 5zm0-20c3 0 5-2 5-5v-10a5 5 0 10-10 0v10c0 3 2 5 5 5zM330 953c0 6-3 9-7 9-5 0-8-4-8-10v-1c0-4 1-7 3-11l4-9 8-14 8 14 5 9 2 11v1c0 6-3 10-7 10-5 0-7-3-7-9h-1zM89 575c0-11-6-18-14-18s-15 9-15 20v3c0 7 3 15 5 21 2 7 6 13 9 19l16 27 16-27c3-6 7-12 9-19 2-6 5-14 5-21v-3c0-11-7-20-15-20s-14 7-14 18c0 2-2 2-2 0zM269 575c0-11-6-18-14-18s-15 9-15 20v3c0 7 3 15 5 21 2 7 6 13 9 19l16 27 16-27c3-6 7-12 9-19 2-6 5-14 5-21v-3c0-11-7-20-15-20s-14 7-14 18c0 2-2 2-2 0zM179 665c0-11-6-18-14-18s-15 9-15 20v3c0 7 3 15 5 21 2 7 6 13 9 19l16 27 16-27c3-6 7-12 9-19 2-6 5-14 5-21v-3c0-11-7-20-15-20s-14 7-14 18c0 2-2 2-2 0zM89 755c0-11-6-18-14-18s-15 9-15 20v3c0 7 3 15 5 21 2 7 6 13 9 19l16 27 16-27c3-6 7-12 9-19 2-6 5-14 5-21v-3c0-11-7-20-15-20s-14 7-14 18c0 2-2 2-2 0zM269 755c0-11-6-18-14-18s-15 9-15 20v3c0 7 3 15 5 21 2 7 6 13 9 19l16 27 16-27c3-6 7-12 9-19 2-6 5-14 5-21v-3c0-11-7-20-15-20s-14 7-14 18c0 2-2 2-2 0zM179 899c0 11-6 18-14 18s-15-9-15-20v-2c0-8 3-15 5-21 2-7 6-13 9-19l16-28 16 28c3 6 7 12 9 19 2 6 5 13 5 21v2c0 11-7 20-15 20s-14-7-14-18c0-2-2-2-2 0zM89 989c0 11-6 18-14 18s-15-9-15-20v-2c0-8 3-15 5-21 2-7 6-13 9-19l16-28 16 28c3 6 7 12 9 19 2 6 5 13 5 21v2c0 11-7 20-15 20s-14-7-14-18c0-2-2-2-2 0zM269 989c0 11-6 18-14 18s-15-9-15-20v-2c0-8 3-15 5-21 2-7 6-13 9-19l16-28 16 28c3 6 7 12 9 19 2 6 5 13 5 21v2c0 11-7 20-15 20s-14-7-14-18c0-2-2-2-2 0zM30 611c0-5-3-9-7-9-5 0-8 5-8 10v2c0 3 1 7 3 10l4 10 8 13 8-13 5-10 2-10v-2c0-5-3-10-7-10-5 0-7 4-7 9h-1z"/>
    </g>
    <g transform="scale(.25104) rotate(15 -2123 2711)">
      <rect width="359" height="539" x="1" y="513" fill="#fff" stroke="#000" rx="29.9" ry="29.9"/>
      <path d="M15 542l-5 7v7l5-7v43h5v-50zM35 542c-6 0-10 5-10 10v30a10 10 0 1020 0v-30c0-5-4-10-10-10zm0 5c3 0 5 3 5 5v30a5 5 0 11-10 0v-30c0-2 2-5 5-5zM345 1022l5-7v-7l-5 7v-43h-5v50zM325 1022c6 0 10-4 10-10v-30a10 10 0 10-20 0v30c0 6 4 10 10 10zm0-5c-3 0-5-2-5-5v-30a5 5 0 1110 0v30c0 3-2 5-5 5zM33 630c0 2 2 7 6 7s6-4 6-9l-2-8-5-8-8-10-7 10-5 8c-2 3-3 5-3 8 0 5 2 9 7 9 3 0 5-5 6-7v1l-1 8-2 8h10l-2-8-1-8 1-1zM333 934c0-2 2-7 6-7s6 4 6 9l-2 9-5 8-8 9-7-9-5-8c-2-3-3-5-3-9 0-5 2-9 7-9 3 0 5 5 6 7 0 1 0 0 0 0l-1-8-2-9h10l-2 9-1 8h1zM95 613c1 4 5 14 12 14 9 0 13-8 13-18 0-7-3-11-5-17l-10-16-15-19-15 19-10 16c-2 6-5 10-5 17 0 10 4 18 13 18 7 0 11-10 12-14 1-1 1 0 1 1l-2 16-4 17c5-2 15-2 20 0l-4-17-2-16c0-1 0-2 1-1zM275 613c1 4 5 14 12 14 9 0 13-8 13-18 0-7-3-11-5-17l-10-16-15-19-15 19-10 16c-2 6-5 10-5 17 0 10 4 18 13 18 7 0 11-10 12-14 1-1 1 0 1 1l-2 16-4 17c5-2 15-2 20 0l-4-17-2-16c0-1 0-2 1-1zM185 673c1 4 5 14 12 14 9 0 13-8 13-18 0-7-3-11-5-17l-10-16-15-19-15 19-10 16c-2 6-5 10-5 17 0 10 4 18 13 18 7 0 11-10 12-14 1-1 1 0 1 1l-2 16-4 17c5-2 15-2 20 0l-4-17-2-16c0-1 0-2 1-1zM95 733c1 4 5 14 12 14 9 0 13-8 13-18 0-7-3-11-5-17l-10-16-15-19-15 19-10 16c-2 6-5 10-5 17 0 10 4 18 13 18 7 0 11-10 12-14 1-1 1 0 1 1l-2 16-4 17c5-2 15-2 20 0l-4-17-2-16c0-1 0-2 1-1zM275 733c1 4 5 14 12 14 9 0 13-8 13-18 0-7-3-11-5-17l-10-16-15-19-15 19-10 16c-2 6-5 10-5 17 0 10 4 18 13 18 7 0 11-10 12-14 1-1 1 0 1 1l-2 16-4 17c5-2 15-2 20 0l-4-17-2-16c0-1 0-2 1-1zM95 831c1-4 5-14 12-14 9 0 13 8 13 18 0 7-3 12-5 17l-10 16-15 19-15-19-10-16c-2-5-5-10-5-17 0-10 4-18 13-18 7 0 11 10 12 14 1 1 1 0 1-1l-2-16-4-17c5 2 15 2 20 0l-4 17-2 16c0 1 0 2 1 1zM275 831c1-4 5-14 12-14 9 0 13 8 13 18 0 7-3 12-5 17l-10 16-15 19-15-19-10-16c-2-5-5-10-5-17 0-10 4-18 13-18 7 0 11 10 12 14 1 1 1 0 1-1l-2-16-4-17c5 2 15 2 20 0l-4 17-2 16c0 1 0 2 1 1zM185 891c1-4 5-14 12-14 9 0 13 8 13 18 0 7-3 12-5 17l-10 16-15 19-15-19-10-16c-2-5-5-10-5-17 0-10 4-18 13-18 7 0 11 10 12 14 1 1 1 0 1-1l-2-16-4-17c5 2 15 2 20 0l-4 17-2 16c0 1 0 2 1 1zM95 951c1-4 5-14 12-14 9 0 13 8 13 18 0 7-3 12-5 17l-10 16-15 19-15-19-10-16c-2-5-5-10-5-17 0-10 4-18 13-18 7 0 11 10 12 14 1 1 1 0 1-1l-2-16-4-17c5 2 15 2 20 0l-4 17-2 16c0 1 0 2 1 1zM275 951c1-4 5-14 12-14 9 0 13 8 13 18 0 7-3 12-5 17l-10 16-15 19-15-19-10-16c-2-5-5-10-5-17 0-10 4-18 13-18 7 0 11 10 12 14 1 1 1 0 1-1l-2-16-4-17c5 2 15 2 20 0l-4 17-2 16c0 1 0 2 1 1z"/>
    </g>
  </g>
</svg>
